<svg xmlns="http://www.w3.org/2000/svg" width="65" height="65" viewBox="0 0 65 65">
    <g fill="none" fill-rule="evenodd">
        <path fill="#00786E" fill-rule="nonzero" d="M32.494 54.21c-.725.913-1.343 1.815-2.08 2.59-.972 1.022-1.93 2.138-3.097 2.857-1.86 1.154-3.795 2.188-6.065 2.421-2.819.297-5.555.152-8.197-.933-2.207-.908-4.118-2.308-5.713-4.13-2.63-3.008-3.84-6.62-4.048-10.63-.05-.99.473-1.653 1.261-2.081.612-.335 1.368-.303 1.804.201.454.524.914 1.3.908 1.955-.045 2.453.781 4.615 2.017 6.557 1.066 1.671 2.585 2.958 4.35 3.916 2.592 1.406 5.323 1.703 8.09.971 1.955-.517 3.81-1.469 5.177-3.09.971-1.147 1.923-2.37 2.586-3.713.643-1.306.53-2.825.277-4.288-.36-2.074-1.854-3.411-2.97-4.981-2.093-2.951-4.281-5.833-6.375-8.784-1.948-2.742-1.998-6.715.145-9.413 1.369-1.728 3.204-2.768 5.398-2.8 4.376-.063 8.758-.063 13.134.006 1.595.026 2.957.72 4.224 1.854 1.375 1.223 2.106 2.692 2.434 4.426.322 1.678.107 3.368-.8 4.793-1.28 2.024-2.724 3.94-4.099 5.901-1.16 1.665-2.327 3.323-3.487 4.988-.422.605-.851 1.204-1.273 1.803-1.255 1.76-1.413 3.752-.858 5.75.637 2.296 1.992 4.13 3.903 5.511 3.146 2.27 6.507 3.046 10.246 1.848 2.541-.813 4.64-2.327 6.116-4.521 1.167-1.74 2.113-3.72 2.075-5.996a4.899 4.899 0 0 1 .22-1.545c.366-1.135 1.167-1.728 2.03-1.495 1.211.328 1.86 1.035 1.747 2.29-.189 2.162-.473 4.293-1.393 6.33-.851 1.879-1.923 3.543-3.336 4.968-2.326 2.352-5.088 3.828-8.329 4.294-2.396.347-4.792.354-7.087-.46-3.544-1.255-6.488-3.386-8.506-6.74-.132-.196-.265-.385-.429-.63z"/>
        <path d="M49.916 4.99l-6.123 13.48"/>
        <path fill="#7ACCC8" fill-rule="nonzero" d="M43.976 18.559l-.366-.164a1.383 1.383 0 0 1-.687-1.829l4.981-10.965a1.383 1.383 0 0 1 1.829-.687l.366.164a1.383 1.383 0 0 1 .687 1.829l-4.981 10.965a1.383 1.383 0 0 1-1.829.687zM39.285 17.468l-.404-.013a1.382 1.382 0 0 1-1.33-1.43l.448-12.038a1.385 1.385 0 0 1 1.431-1.33l.404.012a1.382 1.382 0 0 1 1.33 1.432l-.448 12.037a1.381 1.381 0 0 1-1.431 1.33zM47.06 21.642l-.253-.315a1.383 1.383 0 0 1 .227-1.942l9.452-7.466a1.383 1.383 0 0 1 1.942.227l.252.316c.473.599.372 1.469-.227 1.942l-9.451 7.465a1.383 1.383 0 0 1-1.943-.227z"/>
    </g>
</svg>
